<svg width="37" height="37" viewBox="0 0 37 37" fill="none" xmlns="http://www.w3.org/2000/svg">
<g filter="url(#filter0_d_49_323)">
<path d="M8.77783 0.119141C6.57158 0.119141 4.77783 1.91289 4.77783 4.11914V24.1191C4.77783 26.3254 6.57158 28.1191 8.77783 28.1191H28.7778C30.9841 28.1191 32.7778 26.3254 32.7778 24.1191V4.11914C32.7778 1.91289 30.9841 0.119141 28.7778 0.119141H8.77783ZM18.4028 15.1004L8.79033 8.89414C8.90283 7.89414 9.74658 7.11914 10.7778 7.11914H26.7778C27.8091 7.11914 28.6528 7.89414 28.7653 8.89414L19.1528 15.1004C19.0403 15.1754 18.9091 15.2129 18.7778 15.2129C18.6466 15.2129 18.5153 15.1754 18.4028 15.1004ZM20.2403 16.7816L28.7778 11.2691V19.1191C28.7778 20.2254 27.8841 21.1191 26.7778 21.1191H10.7778C9.67158 21.1191 8.77783 20.2254 8.77783 19.1191V11.2691L17.3153 16.7816C17.7528 17.0629 18.2591 17.2129 18.7778 17.2129C19.2966 17.2129 19.8028 17.0629 20.2403 16.7816Z" fill="#FF124F"/>
</g>
<defs>
<filter id="filter0_d_49_323" x="0.777832" y="0.119141" width="36" height="36" filterUnits="userSpaceOnUse" color-interpolation-filters="sRGB">
<feFlood flood-opacity="0" result="BackgroundImageFix"/>
<feColorMatrix in="SourceAlpha" type="matrix" values="0 0 0 0 0 0 0 0 0 0 0 0 0 0 0 0 0 0 127 0" result="hardAlpha"/>
<feOffset dy="4"/>
<feGaussianBlur stdDeviation="2"/>
<feComposite in2="hardAlpha" operator="out"/>
<feColorMatrix type="matrix" values="0 0 0 0 0 0 0 0 0 0 0 0 0 0 0 0 0 0 0.25 0"/>
<feBlend mode="normal" in2="BackgroundImageFix" result="effect1_dropShadow_49_323"/>
<feBlend mode="normal" in="SourceGraphic" in2="effect1_dropShadow_49_323" result="shape"/>
</filter>
</defs>
</svg>
