<svg width="36" height="36" viewBox="0 0 36 36" fill="none" xmlns="http://www.w3.org/2000/svg">
<g filter="url(#filter0_d_49_320)">
<path d="M29 0H7C5.34375 0 4 1.34375 4 3V25C4 26.6562 5.34375 28 7 28H29C30.6562 28 32 26.6562 32 25V3C32 1.34375 30.6562 0 29 0ZM21.3312 23.9813C20.8062 24.075 20.6125 23.75 20.6125 23.4813C20.6125 23.1438 20.625 21.4187 20.625 20.025C20.625 19.05 20.3 18.4313 19.9187 18.1063C22.2313 17.85 24.6688 17.5312 24.6688 13.5375C24.6688 12.4 24.2625 11.8313 23.6 11.1C23.7063 10.8313 24.0625 9.725 23.4937 8.2875C22.625 8.01875 20.6375 9.40625 20.6375 9.40625C19.8125 9.175 18.9188 9.05625 18.0375 9.05625C17.1562 9.05625 16.2625 9.175 15.4375 9.40625C15.4375 9.40625 13.45 8.01875 12.5813 8.2875C12.0125 9.71875 12.3625 10.825 12.475 11.1C11.8125 11.8313 11.5 12.4 11.5 13.5375C11.5 17.5125 13.8313 17.85 16.1438 18.1063C15.8438 18.375 15.575 18.8375 15.4812 19.5C14.8875 19.7687 13.3687 20.2313 12.4625 18.6313C11.8937 17.6438 10.8688 17.5625 10.8688 17.5625C9.85625 17.55 10.8 18.2 10.8 18.2C11.475 18.5125 11.95 19.7125 11.95 19.7125C12.5562 21.5688 15.4563 20.9438 15.4563 20.9438C15.4563 21.8125 15.4688 23.225 15.4688 23.4813C15.4688 23.75 15.2812 24.075 14.75 23.9813C10.625 22.6 7.7375 18.675 7.7375 14.0875C7.7375 8.35 12.125 3.99375 17.8625 3.99375C23.6 3.99375 28.25 8.35 28.25 14.0875C28.2563 18.675 25.4562 22.6063 21.3312 23.9813ZM15.2 20.1625C15.0813 20.1875 14.9688 20.1375 14.9563 20.0562C14.9438 19.9625 15.025 19.8813 15.1438 19.8563C15.2625 19.8438 15.375 19.8938 15.3875 19.975C15.4062 20.0562 15.325 20.1375 15.2 20.1625ZM14.6062 20.1063C14.6062 20.1875 14.5125 20.2563 14.3875 20.2563C14.25 20.2688 14.1562 20.2 14.1562 20.1063C14.1562 20.025 14.25 19.9562 14.375 19.9562C14.4937 19.9437 14.6062 20.0125 14.6062 20.1063ZM13.75 20.0375C13.725 20.1187 13.6 20.1562 13.4937 20.1187C13.375 20.0938 13.2938 20 13.3188 19.9188C13.3438 19.8375 13.4688 19.8 13.575 19.825C13.7 19.8625 13.7812 19.9563 13.75 20.0375ZM12.9812 19.7C12.925 19.7688 12.8062 19.7563 12.7125 19.6625C12.6187 19.5813 12.5938 19.4625 12.6562 19.4062C12.7125 19.3375 12.8313 19.35 12.925 19.4438C13.0063 19.525 13.0375 19.65 12.9812 19.7ZM12.4125 19.1313C12.3563 19.1688 12.25 19.1313 12.1812 19.0375C12.1125 18.9438 12.1125 18.8375 12.1812 18.7938C12.25 18.7375 12.3563 18.7812 12.4125 18.875C12.4813 18.9688 12.4813 19.0813 12.4125 19.1313ZM12.0063 18.525C11.95 18.5812 11.8562 18.55 11.7875 18.4875C11.7188 18.4062 11.7062 18.3125 11.7625 18.2687C11.8187 18.2125 11.9125 18.2437 11.9812 18.3062C12.05 18.3875 12.0625 18.4812 12.0063 18.525ZM11.5875 18.0625C11.5625 18.1187 11.4812 18.1313 11.4125 18.0875C11.3312 18.05 11.2937 17.9812 11.3187 17.925C11.3438 17.8875 11.4125 17.8687 11.4938 17.9C11.575 17.9438 11.6125 18.0125 11.5875 18.0625Z" fill="#FF124F"/>
</g>
<defs>
<filter id="filter0_d_49_320" x="0" y="0" width="36" height="36" filterUnits="userSpaceOnUse" color-interpolation-filters="sRGB">
<feFlood flood-opacity="0" result="BackgroundImageFix"/>
<feColorMatrix in="SourceAlpha" type="matrix" values="0 0 0 0 0 0 0 0 0 0 0 0 0 0 0 0 0 0 127 0" result="hardAlpha"/>
<feOffset dy="4"/>
<feGaussianBlur stdDeviation="2"/>
<feComposite in2="hardAlpha" operator="out"/>
<feColorMatrix type="matrix" values="0 0 0 0 0 0 0 0 0 0 0 0 0 0 0 0 0 0 0.25 0"/>
<feBlend mode="normal" in2="BackgroundImageFix" result="effect1_dropShadow_49_320"/>
<feBlend mode="normal" in="SourceGraphic" in2="effect1_dropShadow_49_320" result="shape"/>
</filter>
</defs>
</svg>
