<svg width="37" height="36" viewBox="0 0 37 36" fill="none" xmlns="http://www.w3.org/2000/svg">
<g filter="url(#filter0_d_49_322)">
<path d="M18.4443 5.675C13.9006 5.675 10.2068 9.36875 10.2006 13.9125C10.2006 15.4688 10.6381 16.9875 11.4631 18.2938L11.6568 18.6063L10.8256 21.6437L13.9443 20.825L14.2443 21.0063C15.5068 21.7563 16.9568 22.1562 18.4381 22.1562H18.4443C22.9818 22.1562 26.7756 18.4625 26.7756 13.9187C26.7756 11.7188 25.8256 9.65 24.2693 8.09375C22.7068 6.53125 20.6443 5.675 18.4443 5.675ZM23.2881 17.45C23.0818 18.0312 22.0943 18.5562 21.6193 18.625C20.8318 18.7437 20.2193 18.6812 18.6506 18.0063C16.1693 16.9312 14.5443 14.4312 14.4193 14.2687C14.2943 14.1062 13.4068 12.925 13.4068 11.7063C13.4068 10.4875 14.0443 9.8875 14.2756 9.6375C14.5006 9.3875 14.7693 9.325 14.9381 9.325C15.1006 9.325 15.2693 9.325 15.4131 9.33125C15.5631 9.3375 15.7693 9.275 15.9693 9.75625C16.1756 10.25 16.6693 11.4688 16.7318 11.5938C16.7943 11.7188 16.8381 11.8625 16.7506 12.025C16.2756 12.975 15.7693 12.9375 16.0256 13.375C16.9818 15.0188 17.9381 15.5875 19.3943 16.3188C19.6443 16.4438 19.7881 16.425 19.9318 16.2563C20.0756 16.0938 20.5506 15.5312 20.7131 15.2875C20.8756 15.0375 21.0443 15.0813 21.2693 15.1625C21.4943 15.2438 22.7131 15.8438 22.9631 15.9688C23.2131 16.0938 23.3756 16.1562 23.4381 16.2563C23.4943 16.375 23.4943 16.875 23.2881 17.45ZM29.4443 0H7.44434C5.78809 0 4.44434 1.34375 4.44434 3V25C4.44434 26.6562 5.78809 28 7.44434 28H29.4443C31.1006 28 32.4443 26.6562 32.4443 25V3C32.4443 1.34375 31.1006 0 29.4443 0ZM18.4381 23.825C16.7756 23.825 15.1443 23.4062 13.7006 22.6187L8.44434 24L9.85059 18.8625C8.98184 17.3625 8.52559 15.6562 8.52559 13.9062C8.53184 8.44375 12.9756 4 18.4381 4C21.0881 4 23.5756 5.03125 25.4506 6.90625C27.3193 8.78125 28.4443 11.2687 28.4443 13.9187C28.4443 19.3813 23.9006 23.825 18.4381 23.825Z" fill="#FF124F"/>
</g>
<defs>
<filter id="filter0_d_49_322" x="0.444336" y="0" width="36" height="36" filterUnits="userSpaceOnUse" color-interpolation-filters="sRGB">
<feFlood flood-opacity="0" result="BackgroundImageFix"/>
<feColorMatrix in="SourceAlpha" type="matrix" values="0 0 0 0 0 0 0 0 0 0 0 0 0 0 0 0 0 0 127 0" result="hardAlpha"/>
<feOffset dy="4"/>
<feGaussianBlur stdDeviation="2"/>
<feComposite in2="hardAlpha" operator="out"/>
<feColorMatrix type="matrix" values="0 0 0 0 0 0 0 0 0 0 0 0 0 0 0 0 0 0 0.25 0"/>
<feBlend mode="normal" in2="BackgroundImageFix" result="effect1_dropShadow_49_322"/>
<feBlend mode="normal" in="SourceGraphic" in2="effect1_dropShadow_49_322" result="shape"/>
</filter>
</defs>
</svg>
